<?xml version="1.0" encoding="utf-8" ?>
<svg xmlns="http://www.w3.org/2000/svg" xmlns:xlink="http://www.w3.org/1999/xlink" width="3510" height="3510">
	<path fill="#FEFEFE" transform="scale(3.42819 3.42819)" d="M0 0L1024 0L1024 1024L0 1024L0 0Z"/>
	<path fill="#040305" transform="scale(3.42819 3.42819)" d="M814.231 878.254C815.557 878.42 816.048 878.667 816.876 879.626C816.526 881.268 816.103 881.557 814.985 882.757C813.627 882.657 813.032 882.871 811.981 881.918C812.055 880.344 813.239 879.371 814.231 878.254Z"/>
	<path fill="#040305" transform="scale(3.42819 3.42819)" d="M342.142 97.7821C342.467 97.8433 342.801 97.8726 343.119 97.9658C344.235 98.2933 344.486 98.5533 344.99 99.5061C344.688 101.109 343.885 101.789 342.777 102.882C342.655 102.856 342.53 102.842 342.411 102.806C341.132 102.42 340.903 102.375 340.203 101.294C340.4 99.7075 341.15 98.9464 342.142 97.7821Z"/>
	<path fill="#040305" transform="scale(3.42819 3.42819)" d="M149.592 336.241C152.28 336.2 155.368 335.841 157.803 337.149C158.39 338.409 158.255 338.358 157.774 339.686C156.737 340.544 155.308 340.394 154.023 340.458C151.412 340.501 147.859 340.992 145.599 339.579C145.142 338.402 145.23 338.399 145.651 337.192C146.796 336.192 148.153 336.318 149.592 336.241Z"/>
	<path fill="#040305" transform="scale(3.42819 3.42819)" d="M105.531 336.535C109.337 336.311 113.402 335.579 117.037 336.945C117.997 338.295 117.632 338.753 117.405 340.35C113.772 340.845 109.419 341.562 106.018 339.955C105.197 338.546 105.399 338.121 105.531 336.535Z"/>
	<path fill="#040305" transform="scale(3.42819 3.42819)" d="M118.109 314.266C118.676 314.268 119.179 314.243 119.744 314.373C121.321 314.735 123.346 317.567 124.213 318.941C125.733 321.348 126.773 323.224 126.114 326.069C125.542 325.973 125.151 325.924 124.582 325.744C122.686 325.142 120.366 321.7 119.359 319.982C118.063 317.771 117.475 316.779 118.109 314.266Z"/>
	<path fill="#040305" transform="scale(3.42819 3.42819)" d="M123.355 349.2C123.41 349.204 123.465 349.204 123.519 349.211C124.982 349.407 125.381 349.359 126.332 350.533C126.498 354.292 123.041 358.37 121.045 361.453C120.845 361.437 120.64 361.451 120.445 361.405C119.189 361.115 119.025 360.844 118.415 359.811C118.513 356.253 121.599 352.198 123.355 349.2Z"/>
	<path fill="#040305" transform="scale(3.42819 3.42819)" d="M143.695 313.839C144.677 314.234 145.24 314.565 145.992 315.312C146.653 318.507 141.836 323.785 140.054 326.517L138.482 325.95C138.056 325.371 137.694 325.133 137.706 324.367C137.759 320.863 141.523 316.426 143.695 313.839Z"/>
	<path fill="#040305" transform="scale(3.42819 3.42819)" d="M903.267 483.681C903.653 483.684 904.429 483.672 904.789 483.752C905.424 483.892 905.845 484.19 906.112 484.771C907.564 487.928 907.218 495.283 905.911 498.429C905.057 498.202 903.937 498.027 903.505 497.198C901.958 494.228 902.133 486.762 903.267 483.681Z"/>
	<path fill="#040305" transform="scale(3.42819 3.42819)" d="M890.831 516.835C891.185 517.12 891.823 517.605 892.087 517.956C892.528 518.543 892.774 519.254 892.621 519.97C891.931 523.198 887.368 526.436 884.829 528.366C884.475 528.126 883.825 527.711 883.544 527.411C883.1 526.937 882.76 526.325 882.865 525.67C883.124 524.057 884.455 522.8 885.621 521.763C887.412 520.171 889.116 518.507 890.831 516.835Z"/>
	<path fill="#040305" transform="scale(3.42819 3.42819)" d="M138.831 348.67C139.282 348.728 139.604 348.739 140.038 348.943C142.46 350.08 145.439 355.805 146.253 358.329C146.717 359.767 146.251 360.388 145.598 361.679C145.037 361.547 144.653 361.486 144.113 361.217C141.825 360.079 139.853 355.915 138.934 353.605C138.108 351.526 137.953 350.74 138.831 348.67Z"/>
	<path fill="#040305" transform="scale(3.42819 3.42819)" d="M883.688 496.832C884.037 496.936 884.386 497.042 884.726 497.172C887.416 498.197 891.7 502.173 892.465 505.019C892.876 506.549 892.12 507.148 891.336 508.35C891.041 508.245 890.732 508.171 890.45 508.034C887.685 506.692 883.855 502.515 882.614 499.718C882.658 498.23 882.826 498.07 883.688 496.832Z"/>
	<path fill="#040305" transform="scale(3.42819 3.42819)" d="M903.474 525.637C903.838 525.685 904.481 525.757 904.815 525.863C905.77 526.167 906.079 526.617 906.44 527.523C907.735 530.778 907.605 537.633 906.23 540.81C905.14 540.63 904.553 540.483 903.667 539.812C901.624 535.991 902.387 529.706 903.474 525.637Z"/>
	<path fill="#040305" transform="scale(3.42819 3.42819)" d="M367.489 81.4487C368.373 82.4882 368.58 82.6157 368.731 83.9504C366.702 87.7117 359.996 90.806 356.364 93.0477C355.298 92.2772 355.162 92.3061 354.833 91.0541C356.473 87.4714 364.173 83.5775 367.489 81.4487Z"/>
	<path fill="#040305" transform="scale(3.42819 3.42819)" d="M928.931 495.369C929.124 495.494 929.337 495.595 929.512 495.745C930.423 496.527 930.435 496.819 930.434 497.925C928.331 501.696 921.759 504.792 918.103 507.081C917.758 506.887 917.434 506.656 917.112 506.426C916.232 505.801 916.449 505.81 916.279 504.817C917.824 501.09 925.563 497.41 928.931 495.369Z"/>
	<path fill="#040305" transform="scale(3.42819 3.42819)" d="M917.37 516.792C921.41 518.414 927.792 522.502 930.223 526.101C930.319 527.673 930.101 527.713 929.156 529.008C924.969 526.872 918.456 523.61 915.969 519.605C915.999 518.015 916.343 517.939 917.37 516.792Z"/>
	<path fill="#040305" transform="scale(3.42819 3.42819)" d="M849.886 853.841C850.949 854.57 851.176 854.603 851.599 855.797C849.859 859.295 833.269 869.112 829.273 871.437L828.221 871.075L827.873 870.037C829.578 866.403 845.813 856.537 849.886 853.841Z"/>
	<path fill="#040305" transform="scale(3.42819 3.42819)" d="M801.286 887.408C802.091 887.618 802.479 887.983 803.13 888.481L803.254 889.632C801.612 892.018 751.82 926.109 744.734 930.598C743.762 930.364 743.7 930.151 743.004 929.485L743.102 928.291C745.358 925.265 795.086 891.725 801.286 887.408Z"/>
	<path fill="#040305" transform="scale(3.42819 3.42819)" d="M846.554 146.36C847.846 147.269 848.032 147.21 848.408 148.716C847.027 152.877 839.851 157.934 836.724 161.088C839.622 164.22 843.354 166.888 845.979 170.217C847.221 171.793 848.741 173.971 848.497 176.058C843.375 175.39 837.406 167.669 833.485 164.284C829.288 168.314 825.162 172.46 820.672 176.166L819.675 176.24L819.751 176.193L818.071 175.248C818.459 171.429 827.352 164.355 830.426 161.281C826.849 157.75 820.274 152.535 819.179 147.602L819.915 147.244C825.119 148.914 829.695 154.253 833.66 157.89C838.346 154.645 842.462 150.321 846.554 146.36Z"/>
	<path fill="#040305" transform="scale(3.42819 3.42819)" d="M152.234 874.698C156.574 875.123 163.544 884.435 166.588 887.593C170.697 883.811 175.584 877.861 180.935 875.992L181.599 876.34C180.715 881.132 173.353 887.022 169.879 890.487C173.448 894.976 178.955 898.264 181.378 903.563C181.316 905.173 181.093 905.196 180.005 906.422C175.107 903.015 171.249 897.167 166.503 893.276C163.037 896.106 159.889 899.335 156.57 902.333C155.257 903.518 153.289 905.556 151.525 905.462C150.837 904.399 150.875 904.202 150.875 902.919C153.347 898.525 159.68 894.143 163.485 890.727C160.222 886.251 155.064 882.713 152.31 877.948C151.547 876.627 151.783 876.09 152.234 874.698Z"/>
	<path fill="#040305" transform="scale(3.42819 3.42819)" d="M327.067 108.328C328.193 109.046 328.354 109.067 328.838 110.292C328.157 111.8 326.926 112.67 325.619 113.62C312.74 122.982 298.823 131.338 285.536 140.163C272.834 148.601 260.452 157.682 247.475 165.677C246.67 165.413 246.408 165.15 245.792 164.595L245.761 163.405C248.336 159.529 317.138 115.139 327.067 108.328Z"/>
	<path fill="#F2A96F" transform="scale(3.42819 3.42819)" d="M755.419 140.135C757.321 140.041 759.375 140.278 761.158 140.962C763.997 142.052 766.288 144.065 767.451 146.907Q767.659 147.423 767.812 147.959Q767.965 148.494 768.06 149.042Q768.156 149.591 768.193 150.146Q768.231 150.701 768.209 151.258Q768.188 151.814 768.109 152.365Q768.029 152.916 767.892 153.455Q767.755 153.995 767.562 154.517Q767.369 155.039 767.122 155.538C765.138 159.582 761.847 161.289 757.72 162.573C754.907 162.64 752.33 162.157 749.924 160.614Q749.445 160.305 749 159.95Q748.555 159.595 748.147 159.198Q747.74 158.8 747.374 158.363Q747.008 157.927 746.688 157.456Q746.367 156.985 746.096 156.485Q745.824 155.985 745.604 155.459Q745.383 154.934 745.216 154.39Q745.05 153.845 744.938 153.287Q744.824 152.748 744.766 152.2Q744.708 151.652 744.706 151.101Q744.705 150.55 744.76 150.001Q744.814 149.453 744.925 148.913Q745.035 148.373 745.2 147.847Q745.365 147.322 745.583 146.816Q745.801 146.309 746.07 145.828Q746.339 145.347 746.655 144.896C748.841 141.813 751.837 140.784 755.419 140.135Z"/>
	<path fill="#F2A96F" transform="scale(3.42819 3.42819)" d="M903.514 864.574C905.71 864.857 907.997 865.549 909.903 866.699Q910.384 866.988 910.834 867.324Q911.283 867.66 911.697 868.04Q912.11 868.419 912.482 868.839Q912.855 869.259 913.183 869.715Q913.511 870.17 913.791 870.656Q914.071 871.143 914.3 871.655Q914.529 872.167 914.706 872.7Q914.882 873.233 915.003 873.781Q915.128 874.337 915.197 874.902Q915.266 875.467 915.278 876.037Q915.291 876.606 915.247 877.174Q915.204 877.741 915.104 878.302Q915.005 878.863 914.85 879.411Q914.696 879.959 914.488 880.489Q914.28 881.019 914.021 881.526Q913.761 882.033 913.453 882.512C911.21 885.992 908.061 887.171 904.168 887.922C902.158 887.807 900.18 887.532 898.332 886.679C895.563 885.401 893.407 883.148 892.443 880.233C891.445 877.219 891.746 873.754 893.344 870.999C895.7 866.934 899.205 865.635 903.514 864.574Z"/>
	<path fill="#4878F1" transform="scale(3.42819 3.42819)" d="M192.14 177.534C194.222 177.397 196.219 177.414 198.214 178.112C201.616 179.303 204.507 181.713 206.019 185.018C207.312 187.845 207.48 190.99 206.381 193.908C204.875 197.907 201.827 200.189 198.114 202.001C195.789 202.528 193.88 202.604 191.583 201.854C188.177 200.741 185.621 198.39 184.143 195.129Q183.875 194.544 183.666 193.936Q183.458 193.327 183.311 192.701Q183.164 192.074 183.081 191.436Q182.997 190.798 182.978 190.155Q182.958 189.512 183.003 188.87Q183.048 188.228 183.156 187.594Q183.265 186.96 183.436 186.34Q183.608 185.72 183.84 185.12C185.431 181.034 188.296 179.192 192.14 177.534Z"/>
	<path fill="#4878F1" transform="scale(3.42819 3.42819)" d="M97.9072 522.581C100.272 522.705 102.546 523.309 104.61 524.481Q105.169 524.792 105.693 525.16Q106.216 525.527 106.699 525.947Q107.182 526.367 107.619 526.834Q108.056 527.302 108.442 527.812Q108.828 528.323 109.159 528.87Q109.49 529.418 109.762 529.997Q110.035 530.575 110.246 531.179Q110.457 531.783 110.604 532.406Q110.751 533.015 110.836 533.635Q110.92 534.256 110.942 534.882Q110.963 535.508 110.921 536.133Q110.879 536.758 110.774 537.375Q110.669 537.993 110.502 538.596Q110.335 539.2 110.108 539.784Q109.881 540.367 109.596 540.925Q109.311 541.483 108.971 542.009C106.654 545.617 103.421 547.159 99.3408 547.964C96.9229 547.937 94.4402 547.491 92.3041 546.325C89.2832 544.676 87.0622 541.996 86.2217 538.635Q86.07 538.006 85.982 537.365Q85.894 536.724 85.8704 536.078Q85.8468 535.432 85.888 534.786Q85.9292 534.141 86.0347 533.502Q86.1402 532.864 86.309 532.24Q86.4778 531.615 86.7081 531.011Q86.9384 530.406 87.228 529.828Q87.5176 529.25 87.8636 528.703C90.3493 524.813 93.5513 523.467 97.9072 522.581Z"/>
	<defs>
		<linearGradient id="gradient_0" gradientUnits="userSpaceOnUse" x1="252.50856" y1="304.97253" x2="195.54753" y2="316.31909">
			<stop offset="0" stop-color="#0080AF"/>
			<stop offset="1" stop-color="#33B3D0"/>
		</linearGradient>
	</defs>
	<path fill="url(#gradient_0)" transform="scale(3.42819 3.42819)" d="M197.218 291.115C202.77 292.221 207.803 294.286 212.856 296.806C213.551 297.503 214.226 297.985 215.043 298.518C236.032 312.234 231.858 318.182 259.44 322.445C255.643 325.32 251.687 328.442 247.599 330.894L247.221 330.759C239.852 327.577 233.781 323.786 228.075 318.134C225.1 315.186 222.229 312.026 218.851 309.528C210.032 303.005 199.66 299.942 189.453 296.368C191.932 294.409 194.528 292.765 197.218 291.115Z"/>
	<path fill="#4878F1" transform="scale(3.42819 3.42819)" d="M677.519 82.625C681.468 82.3256 685.278 83.0503 688.826 84.848Q689.279 85.0787 689.72 85.3314Q690.161 85.5841 690.588 85.8582Q691.016 86.1324 691.43 86.4273Q691.844 86.7222 692.243 87.0371Q692.642 87.3521 693.024 87.6863Q693.407 88.0205 693.773 88.3732Q694.139 88.7259 694.487 89.0962Q694.835 89.4665 695.164 89.8535Q695.494 90.2404 695.804 90.6432Q696.114 91.046 696.403 91.4635Q696.693 91.8811 696.961 92.3124Q697.23 92.7437 697.477 93.1878Q697.724 93.6318 697.949 94.0875Q698.174 94.5432 698.377 95.0094Q698.579 95.4756 698.758 95.9512Q698.937 96.4268 699.092 96.9107C700.903 102.442 700.468 108.455 697.622 113.561C694.32 119.485 689.233 122.368 682.903 124.06C678.009 124.254 673.705 123.844 669.357 121.302Q668.891 121.031 668.439 120.736Q667.987 120.442 667.552 120.124Q667.116 119.807 666.697 119.467Q666.278 119.127 665.877 118.766Q665.477 118.405 665.095 118.024Q664.714 117.643 664.352 117.243Q663.991 116.843 663.651 116.424Q663.31 116.006 662.992 115.57Q662.674 115.135 662.379 114.684Q662.084 114.233 661.812 113.767Q661.541 113.301 661.293 112.821Q661.046 112.342 660.824 111.851Q660.602 111.359 660.406 110.857Q660.21 110.355 660.04 109.843Q659.869 109.331 659.726 108.811Q659.582 108.292 659.466 107.765Q659.361 107.276 659.28 106.782Q659.199 106.289 659.143 105.792Q659.086 105.295 659.055 104.795Q659.023 104.296 659.016 103.796Q659.009 103.296 659.027 102.796Q659.045 102.296 659.087 101.798Q659.13 101.299 659.197 100.803Q659.264 100.308 659.355 99.8159Q659.447 99.3241 659.562 98.8375Q659.678 98.3508 659.818 97.8705Q659.958 97.3902 660.121 96.9173Q660.284 96.4445 660.47 95.9803Q660.657 95.5161 660.866 95.0617Q661.075 94.6073 661.307 94.1638Q661.538 93.7203 661.791 93.2888Q662.044 92.8573 662.318 92.4388C665.91 86.8741 671.198 83.9888 677.519 82.625Z"/>
	<path fill="#132098" transform="scale(3.42819 3.42819)" d="M809.663 284.015C831.573 269.15 852.576 262.112 879.264 267.344Q881.129 267.717 882.973 268.18Q884.818 268.643 886.637 269.196Q888.457 269.748 890.248 270.387Q892.039 271.027 893.796 271.753Q895.554 272.479 897.274 273.29Q898.995 274.1 900.674 274.993Q902.353 275.886 903.986 276.86Q905.62 277.833 907.204 278.885Q908.789 279.936 910.32 281.063Q911.852 282.191 913.327 283.391Q914.802 284.591 916.217 285.862Q917.632 287.132 918.984 288.47Q920.336 289.807 921.621 291.209Q922.906 292.611 924.122 294.073Q925.337 295.535 926.481 297.055Q927.624 298.575 928.692 300.148Q929.744 301.701 930.717 303.304Q931.691 304.908 932.584 306.557Q933.477 308.206 934.287 309.898Q935.098 311.589 935.824 313.319Q936.55 315.048 937.189 316.811Q937.829 318.575 938.38 320.367Q938.932 322.16 939.394 323.978Q939.857 325.796 940.229 327.634Q940.601 329.472 940.881 331.327Q941.162 333.182 941.351 335.048Q941.539 336.914 941.635 338.787Q941.732 340.66 941.735 342.536Q941.738 344.411 941.649 346.285Q941.56 348.158 941.378 350.025Q941.197 351.892 940.923 353.748Q940.649 355.603 940.284 357.443C939.21 362.895 936.717 368.657 936.071 374.089C936.658 392.569 928.354 411.485 915.882 424.876C910.284 430.887 900.612 439.118 892.972 442.247C889.12 442.033 883.659 444.248 879.673 445.03C869.566 447.014 859.733 447.194 849.531 445.947C829.487 443.498 810.109 434.087 797.556 417.986C788.787 406.738 779.388 387.307 781.244 372.661C779.057 362.94 777.345 353.91 777.979 343.87C779.539 319.202 791.368 299.982 809.663 284.015Z"/>
	<path fill="#102DE3" transform="scale(3.42819 3.42819)" d="M781.244 372.661C789.442 393.995 803.433 411.539 824.651 421.105C844.528 430.066 866.821 430.272 887.116 422.473Q888.771 421.841 890.398 421.14Q892.025 420.439 893.621 419.672Q895.217 418.904 896.78 418.07Q898.343 417.236 899.87 416.338Q901.396 415.439 902.884 414.478Q904.372 413.517 905.819 412.494Q907.265 411.472 908.668 410.39Q910.07 409.308 911.427 408.169Q912.783 407.029 914.091 405.834Q915.398 404.639 916.655 403.391Q917.911 402.142 919.115 400.842Q920.318 399.542 921.466 398.194Q922.614 396.845 923.705 395.449Q924.796 394.053 925.828 392.613Q926.859 391.173 927.83 389.692Q928.801 388.21 929.709 386.689C932.123 382.641 933.682 378.146 936.071 374.089C936.658 392.569 928.354 411.485 915.882 424.876C910.284 430.887 900.612 439.118 892.972 442.247C889.12 442.033 883.659 444.248 879.673 445.03C869.566 447.014 859.733 447.194 849.531 445.947C829.487 443.498 810.109 434.087 797.556 417.986C788.787 406.738 779.388 387.307 781.244 372.661Z"/>
	<path fill="#FEFEFE" transform="scale(3.42819 3.42819)" d="M855.604 293.67C867.92 292.16 880.86 295.513 891.13 302.365Q892.148 303.045 893.13 303.775Q894.113 304.505 895.058 305.282Q896.003 306.06 896.909 306.883Q897.815 307.707 898.678 308.574Q899.542 309.441 900.362 310.35Q901.182 311.259 901.956 312.207Q902.729 313.156 903.455 314.141Q904.181 315.127 904.857 316.147Q905.533 317.167 906.158 318.22Q906.783 319.272 907.355 320.354Q907.927 321.436 908.444 322.546Q908.962 323.655 909.424 324.788Q909.886 325.921 910.292 327.076Q910.697 328.231 911.045 329.405Q911.393 330.578 911.682 331.768Q911.971 332.957 912.201 334.159Q912.465 335.486 912.663 336.826Q912.86 338.165 912.99 339.512Q913.119 340.859 913.181 342.211Q913.242 343.564 913.236 344.917Q913.23 346.271 913.155 347.622Q913.08 348.974 912.938 350.32Q912.796 351.666 912.586 353.003Q912.375 354.34 912.099 355.665Q911.822 356.99 911.478 358.299Q911.135 359.608 910.726 360.899Q910.317 362.189 909.844 363.457Q909.371 364.725 908.835 365.968Q908.298 367.211 907.7 368.425Q907.102 369.639 906.443 370.821Q905.785 372.004 905.067 373.152Q904.35 374.3 903.576 375.41C894.175 389.138 881.047 395.908 864.966 398.855Q863.738 399.021 862.503 399.129Q861.269 399.238 860.031 399.289Q858.793 399.339 857.553 399.333Q856.314 399.326 855.077 399.262Q853.839 399.198 852.606 399.076Q851.373 398.954 850.146 398.776Q848.92 398.597 847.704 398.361Q846.487 398.125 845.283 397.834Q844.078 397.542 842.889 397.194Q841.699 396.846 840.527 396.444Q839.355 396.042 838.203 395.585Q837.051 395.128 835.921 394.619Q834.792 394.109 833.687 393.548Q832.582 392.986 831.505 392.374Q830.427 391.762 829.38 391.1Q828.332 390.439 827.316 389.729C816.406 381.977 809.342 370.066 807.178 356.899Q806.97 355.583 806.827 354.259Q806.684 352.935 806.605 351.606Q806.527 350.276 806.513 348.944Q806.499 347.612 806.55 346.282Q806.601 344.951 806.717 343.624Q806.833 342.297 807.013 340.978Q807.193 339.658 807.437 338.349Q807.682 337.039 807.989 335.743Q808.297 334.448 808.667 333.168Q809.038 331.889 809.47 330.629Q809.903 329.37 810.396 328.132Q810.889 326.895 811.442 325.683Q811.994 324.472 812.605 323.288Q813.217 322.105 813.885 320.953Q814.552 319.801 815.276 318.682Q815.999 317.564 816.776 316.482C826.139 303.675 840.104 296.087 855.604 293.67Z"/>
	<path fill="#132098" transform="scale(3.42819 3.42819)" d="M860.35 316.039C862.772 318.514 865.004 330.35 866.026 334.362Q876.647 330.829 887.333 327.496C888.804 331.756 890.298 336.025 890.966 340.494C883.888 343.493 876.512 345.98 869.144 348.166C870.715 355.062 872.861 361.812 874.378 368.728C870.975 370.27 867.302 371.424 863.789 372.708C862.675 373.025 861.565 373.24 860.429 373.459C858.329 371.448 855.108 357.712 854.049 354.089C847.421 356.259 840.69 358.681 833.817 359.925L830.31 346.321C836.752 344.037 843.333 341.674 849.994 340.128C848.64 333.852 846.903 327.632 846.074 321.258C850.766 319.252 855.508 317.626 860.35 316.039Z"/>
	<path fill="#4878F1" transform="scale(3.42819 3.42819)" d="M758.927 248.514C770.797 256.49 782.423 264.924 794.057 273.243C798.618 276.505 804.466 282.054 809.663 284.015C791.368 299.982 779.539 319.202 777.979 343.87C777.345 353.91 779.057 362.94 781.244 372.661C779.388 387.307 788.787 406.738 797.556 417.986C810.109 434.087 829.487 443.498 849.531 445.947C859.733 447.194 869.566 447.014 879.673 445.03C883.659 444.248 889.12 442.033 892.972 442.247L892.473 442.633C886.016 447.561 878.891 451.794 872.107 456.268C864.504 461.283 857.106 466.598 849.525 471.644C841.825 476.769 833.163 481.271 827.057 488.341C822.12 494.057 819.197 500.863 818.19 508.334C816.682 519.517 820.344 530.774 827.195 539.613C834.013 548.41 845.513 554.724 854.531 561.222L900.677 594.775C909.641 601.346 920.717 607.892 927.909 616.332C932.021 621.157 933.883 626.746 936.409 632.44C938.77 637.763 941.414 643.057 943.324 648.562C948.447 663.327 949.23 680.648 947.349 696.08C944.98 715.522 937.044 738.898 921.057 751.262C915.348 755.677 909.028 759.255 903.056 763.293L874.213 783.211C862.601 791.153 851.404 799.61 839.91 807.706L798.812 836.189C762.673 861.769 727.402 888.648 690.566 913.216C679.683 920.475 670.391 928.471 658.159 933.651C638.928 941.795 616.639 942.441 596.132 939.64C570.046 936.077 554.616 923.894 534.044 909.28Q517.917 897.908 501.464 887.014C489.409 895.604 477.159 903.891 465.045 912.393C441.199 929.127 428.727 939.832 397.92 941.937C388.462 942.583 378.557 942.522 369.188 940.945C357.683 939.009 345.784 934.93 335.962 928.559C328.115 923.468 320.905 917.114 313.563 911.318L278.983 884.339L161.754 793.065C148.205 782.709 134.995 771.67 121.1 761.814Q113.069 756.184 104.856 750.823C101.365 748.587 97.4843 746.564 94.2418 743.991Q92.1003 742.293 90.2325 740.297Q88.3648 738.301 86.8116 736.052C74.3101 718.044 70.6927 678.397 74.8414 656.693C77.0975 644.89 83.7853 631.957 91.781 623.011C100.479 613.279 112.75 605.849 123.347 598.283Q146.02 582.217 168.479 565.852C196.28 587.967 224.995 608.966 253.006 630.824C257.057 633.985 268.906 641.499 271.503 644.601L195.372 694.761Q185.493 701.243 175.546 707.62C170.751 710.686 165.42 713.644 161.177 717.46C158.2 720.137 156.338 722.912 155.494 726.839C153.511 736.059 153.217 752.248 158.194 760.435C159.913 763.261 163.677 765.995 166.262 768.04C176.097 775.823 186.501 783.001 196.555 790.51Q233.302 818.192 270.445 845.342L330.791 889.498C341.631 897.376 352.418 905.848 363.677 913.103Q365.23 914.103 366.868 914.957Q368.506 915.811 370.215 916.512Q371.924 917.213 373.69 917.755Q375.456 918.297 377.264 918.676C397.384 922.719 411.797 911.278 427.546 900.833L454.857 882.615L475.433 868.532L479.485 865.673C483.843 863.753 488.288 860.033 492.304 857.324C501.465 851.142 510.781 845.045 519.67 838.479C529.799 832.259 539.548 824.986 549.371 818.269C555.479 822.949 561.695 827.498 567.873 832.086C579.987 841.082 591.157 849.626 606.542 851.82C618.255 853.49 630.983 851.896 641.727 846.872C652.075 842.034 661.589 834.14 671.031 827.717L725.223 790.965L823.939 723.668C836.53 715.04 851.334 706.435 863.253 697.34C871.882 690.755 876.409 683.601 877.897 672.843C878.239 664.075 878.971 654.565 877.882 645.854C877.057 639.252 874.531 633.444 870.029 628.557C864.315 622.353 857.105 617.62 850.346 612.642L827.429 595.647Q780.593 560.739 734.121 525.347C741.31 522.119 750.671 517.765 755.562 511.468C759.007 507.031 759.559 502.181 759.96 496.769C760.969 483.165 760.115 468.945 760.073 455.287L759.815 372.276L759.728 289.302C759.634 275.884 760.386 261.825 758.927 248.514Z"/>
	<path fill="#040305" transform="scale(3.42819 3.42819)" d="M193.556 617.627C198.227 617.466 203.275 618.946 207.057 621.69Q207.466 621.987 207.859 622.303Q208.252 622.62 208.629 622.955Q209.006 623.291 209.366 623.645Q209.726 623.999 210.068 624.371Q210.409 624.743 210.732 625.131Q211.055 625.519 211.358 625.923Q211.661 626.327 211.943 626.745Q212.225 627.164 212.487 627.596Q212.748 628.028 212.987 628.473Q213.227 628.917 213.443 629.373Q213.66 629.829 213.854 630.295Q214.048 630.761 214.218 631.236Q214.389 631.712 214.535 632.195Q214.682 632.678 214.804 633.168Q214.926 633.658 215.024 634.153Q215.121 634.648 215.194 635.148Q215.263 635.649 215.308 636.153Q215.352 636.657 215.372 637.163Q215.391 637.668 215.386 638.174Q215.38 638.68 215.35 639.185Q215.32 639.69 215.265 640.193Q215.21 640.696 215.13 641.195Q215.05 641.695 214.946 642.19Q214.842 642.685 214.713 643.174Q214.585 643.664 214.432 644.146Q214.28 644.628 214.103 645.103Q213.927 645.577 213.728 646.042Q213.529 646.507 213.307 646.962Q213.085 647.417 212.841 647.86Q212.597 648.303 212.332 648.734Q212.066 649.164 211.78 649.581Q211.494 649.999 211.187 650.401C207.446 655.319 202.447 657.447 196.514 658.357C192.124 658.465 187.801 657.701 183.961 655.486Q183.539 655.241 183.13 654.974Q182.721 654.708 182.326 654.42Q181.932 654.133 181.552 653.825Q181.173 653.518 180.811 653.191Q180.448 652.864 180.103 652.519Q179.758 652.174 179.431 651.811Q179.104 651.448 178.797 651.069Q178.489 650.69 178.202 650.295Q177.915 649.9 177.648 649.491Q177.382 649.082 177.137 648.66Q176.892 648.237 176.67 647.803Q176.447 647.368 176.247 646.923Q176.048 646.477 175.871 646.022Q175.695 645.567 175.543 645.103Q175.391 644.639 175.262 644.168Q175.134 643.697 175.031 643.22Q174.91 642.691 174.817 642.157Q174.723 641.623 174.657 641.085Q174.591 640.546 174.552 640.005Q174.514 639.464 174.504 638.922Q174.493 638.38 174.51 637.838Q174.527 637.296 174.572 636.755Q174.618 636.215 174.69 635.678Q174.763 635.14 174.863 634.607Q174.963 634.074 175.091 633.547Q175.218 633.02 175.372 632.5Q175.526 631.98 175.707 631.469Q175.888 630.957 176.094 630.456Q176.301 629.955 176.533 629.465Q176.765 628.974 177.022 628.497Q177.279 628.019 177.56 627.555Q177.841 627.092 178.146 626.643C181.867 621.251 187.284 618.712 193.556 617.627Z"/>
	<path fill="#FEFEFE" transform="scale(3.42819 3.42819)" d="M191.158 620.6C194.924 620.361 198.365 620.407 201.901 621.936Q202.722 622.293 203.503 622.729Q204.285 623.165 205.019 623.677Q205.753 624.188 206.434 624.77Q207.114 625.351 207.733 625.997Q208.353 626.643 208.905 627.347Q209.458 628.052 209.938 628.807Q210.418 629.562 210.821 630.361Q211.224 631.16 211.546 631.995Q211.701 632.403 211.835 632.819Q211.969 633.235 212.081 633.657Q212.193 634.079 212.283 634.507Q212.374 634.934 212.442 635.366Q212.511 635.797 212.557 636.232Q212.603 636.666 212.627 637.102Q212.651 637.538 212.652 637.975Q212.653 638.412 212.632 638.848Q212.611 639.285 212.568 639.719Q212.524 640.154 212.459 640.586Q212.393 641.018 212.305 641.446Q212.217 641.874 212.108 642.296Q211.998 642.719 211.867 643.136Q211.736 643.553 211.583 643.962Q211.431 644.371 211.258 644.772Q211.085 645.173 210.891 645.565C208.308 650.875 203.879 653.719 198.418 655.48C195.077 655.782 192.014 655.805 188.793 654.686Q188.369 654.541 187.953 654.373Q187.538 654.206 187.131 654.017Q186.725 653.828 186.329 653.618Q185.933 653.408 185.549 653.177Q185.165 652.947 184.793 652.696Q184.421 652.446 184.063 652.177Q183.705 651.907 183.362 651.619Q183.019 651.331 182.691 651.026Q182.363 650.72 182.052 650.398Q181.74 650.076 181.446 649.737Q181.152 649.399 180.877 649.046Q180.601 648.693 180.344 648.326Q180.087 647.959 179.85 647.579Q179.612 647.198 179.395 646.806Q179.178 646.414 178.982 646.011Q178.786 645.609 178.611 645.196Q178.265 644.392 178.002 643.558Q177.738 642.724 177.559 641.868Q177.38 641.011 177.288 640.141Q177.195 639.271 177.19 638.396Q177.184 637.522 177.266 636.651Q177.348 635.78 177.517 634.921Q177.685 634.063 177.939 633.225Q178.192 632.388 178.528 631.58C180.924 625.95 185.647 622.724 191.158 620.6Z"/>
	<path fill="#102DE3" transform="scale(3.42819 3.42819)" d="M549.371 818.269C555.479 822.949 561.695 827.498 567.873 832.086C579.987 841.082 591.157 849.626 606.542 851.82C618.255 853.49 630.983 851.896 641.727 846.872C652.075 842.034 661.589 834.14 671.031 827.717L725.223 790.965L823.939 723.668C836.53 715.04 851.334 706.435 863.253 697.34C871.882 690.755 876.409 683.601 877.897 672.843C879.213 687.289 880.795 714.173 871.304 726.06C864.126 735.051 846.003 745.419 836 752.327Q806.726 772.656 777.221 792.648L682.602 857.639Q672.298 864.639 662.108 871.802C657.86 874.8 653.634 878.143 649.118 880.722C640.322 885.746 630.847 888.792 620.731 889.525C597.025 891.241 584.175 882.495 565.733 869.668C559.022 865.001 552.023 860.475 545.737 855.246C530.966 865.635 516.141 875.975 501.529 886.586C493.14 880.141 483.806 874.953 475.433 868.532L479.485 865.673C483.843 863.753 488.288 860.033 492.304 857.324C501.465 851.142 510.781 845.045 519.67 838.479C529.799 832.259 539.548 824.986 549.371 818.269Z"/>
	<path fill="#040305" transform="scale(3.42819 3.42819)" d="M264.534 218.274C276.28 209.695 288.504 201.78 300.516 193.585L380.988 138.913Q401.746 124.68 422.294 110.145C430.573 104.293 438.901 97.5738 447.768 92.7102Q451.737 90.5347 455.878 88.7088Q460.019 86.883 464.302 85.4204Q468.585 83.9579 472.978 82.8694Q477.371 81.7809 481.841 81.0746C515.156 75.8421 540.803 84.2784 567.443 103.767C575.518 106.215 600.935 125.27 609.637 131.328L675.575 177.411L723.284 210.978C731.108 216.504 739.318 221.743 746.83 227.68C750.076 230.245 752.719 232.837 754.748 236.504C756.813 240.234 757.87 244.417 758.927 248.514C760.386 261.825 759.634 275.884 759.728 289.302L759.815 372.276L760.073 455.287C760.115 468.945 760.969 483.165 759.96 496.769C759.559 502.181 759.007 507.031 755.562 511.468C750.671 517.765 741.31 522.119 734.121 525.347Q780.593 560.738 827.429 595.647L850.346 612.642C857.105 617.62 864.315 622.353 870.029 628.557C874.531 633.444 877.057 639.252 877.882 645.854C878.971 654.565 878.239 664.075 877.897 672.843C876.409 683.601 871.882 690.755 863.253 697.34C851.334 706.435 836.53 715.04 823.939 723.668L725.223 790.965L671.031 827.717C661.589 834.14 652.075 842.034 641.727 846.872C630.983 851.896 618.255 853.49 606.542 851.82C591.157 849.626 579.987 841.082 567.873 832.086C561.695 827.498 555.479 822.949 549.371 818.269C539.548 824.986 529.799 832.259 519.67 838.479C510.781 845.045 501.465 851.142 492.304 857.324C488.288 860.033 483.843 863.753 479.485 865.673L475.433 868.532L454.857 882.615L427.546 900.833C411.797 911.278 397.384 922.719 377.264 918.676Q375.456 918.297 373.69 917.755Q371.924 917.213 370.215 916.512Q368.506 915.811 366.868 914.957Q365.23 914.103 363.677 913.103C352.418 905.848 341.631 897.376 330.791 889.498L270.445 845.342Q233.302 818.192 196.555 790.51C186.501 783.001 176.097 775.823 166.262 768.04C163.677 765.995 159.913 763.261 158.194 760.435C153.217 752.248 153.511 736.059 155.494 726.839C156.338 722.912 158.2 720.137 161.177 717.46C165.42 713.644 170.751 710.686 175.546 707.62Q185.493 701.243 195.372 694.761L271.503 644.601C268.906 641.499 257.057 633.985 253.006 630.824C224.995 608.966 196.28 587.967 168.479 565.852C176.106 560.137 183.841 554.521 191.265 548.543C182.658 541.789 163.463 529.124 157.55 521.58C150.556 512.657 150.816 502.762 150.812 492.014C150.811 487.718 150.597 483.261 151.177 479.007C154.273 456.289 173.795 450.359 189.763 438.083L190.285 437.675C190.268 437.523 190.246 437.371 190.235 437.217C187.813 405.429 206.975 371.569 227.979 349.097C233.539 343.148 242.102 336.965 246.687 331.421C246.868 331.202 247.043 330.98 247.221 330.759L247.599 330.894C251.687 328.442 255.643 325.32 259.44 322.445C231.858 318.182 236.032 312.234 215.043 298.518C214.226 297.985 213.551 297.503 212.856 296.806C207.803 294.286 202.77 292.221 197.218 291.115C194.13 290.889 191.036 290.792 187.943 290.673Q192.196 281.865 196.813 273.242C213.085 243.061 231.824 228.054 264.534 218.274Z"/>
	<path fill="#132098" transform="scale(3.42819 3.42819)" d="M534.637 806.952C538.616 810.341 542.865 813.4 547.057 816.516C538.362 823.242 529.069 829.23 520.021 835.472L490.125 855.556C485.818 858.487 480.87 861.322 476.94 864.711C469.338 868.621 462.101 874.365 455.03 879.212Q440.655 889.041 426.091 898.587C420.44 902.361 414.865 906.392 409.057 909.914C408.942 904.558 407.397 900.136 405.508 895.203L483.199 842.581C500.394 830.965 518.255 819.67 534.637 806.952Z"/>
	<path fill="#102DE3" transform="scale(3.42819 3.42819)" d="M191.265 548.543C199.289 554.298 206.827 560.76 214.728 566.692L306.801 636.325C291.728 633.67 284.017 636.454 271.503 644.601C268.906 641.499 257.057 633.985 253.006 630.824C224.995 608.966 196.28 587.967 168.479 565.852C176.106 560.137 183.841 554.521 191.265 548.543Z"/>
	<path fill="#445BAF" transform="scale(3.42819 3.42819)" d="M409.057 909.914Q406.744 911.289 404.331 912.479C395.871 916.59 382.587 918.374 373.626 914.951C364.027 911.284 355.26 903.71 346.98 897.723L309.054 869.982Q260.987 835.399 213.667 799.8L186.037 779.305C179.425 774.471 172.515 769.815 166.202 764.598C163.366 762.253 160.943 760.041 159.466 756.592C157.604 752.241 156.174 745.239 157.887 740.721L158.408 740.868C158.619 741.392 158.835 741.915 159.075 742.428C159.826 744.029 161.116 745.276 162.495 746.353C177.09 757.748 192.467 768.414 207.403 779.375L293.592 842.634Q319.382 861.89 345.448 880.772C353.763 886.805 363.74 896.372 373.435 899.542C384.41 903.13 395.616 900.409 405.508 895.203C407.397 900.136 408.942 904.558 409.057 909.914Z"/>
	<path fill="#0D131A" transform="scale(3.42819 3.42819)" d="M734.221 284.149C741.757 274.897 748.785 265.036 755.962 255.486C757.55 262.536 756.525 275.148 756.58 282.901Q757.069 312.76 756.991 342.622L757.552 446.862C757.597 462.065 758.278 477.379 757.695 492.568C757.515 497.243 757.573 502.589 755.03 506.656C749.838 514.962 739.614 518.717 731.712 523.817C733.122 519.982 733.847 516.561 734.17 512.492C734.757 505.11 734.506 497.564 734.542 490.156L734.694 451.493L734.511 325.445Q734.411 312.84 734.104 300.238C733.992 295.09 733.381 289.218 734.221 284.149Z"/>
	<path fill="#ADEFA0" transform="scale(3.42819 3.42819)" d="M536.318 126.832C543.025 121.207 550.786 113.232 558.229 108.941C560.618 107.564 564.107 106.248 566.87 107.141C576.066 110.116 600.27 128.807 609.304 135.059Q656.407 167.443 702.972 200.595C716.889 210.43 731.702 219.608 745.11 230.08C747.834 232.207 750.307 234.821 751.807 237.961C755.386 243.206 755.508 249.383 755.962 255.486C748.785 265.036 741.757 274.897 734.221 284.149C733.621 277.557 731.302 272.478 729.392 266.296L729.199 265.663C727.383 262.472 725.511 259.313 723.367 256.328Q721.566 253.776 719.427 251.5Q717.288 249.224 714.853 247.268C706.061 240.235 696.368 234.012 687.13 227.556L635.53 191.599L578.927 152.361C569.468 145.808 560.236 138.523 550.405 132.57C545.834 129.802 541.648 127.674 536.318 126.832Z"/>
	<path fill="#6DE164" transform="scale(3.42819 3.42819)" d="M751.807 237.961C755.386 243.206 755.508 249.383 755.962 255.486C748.785 265.036 741.757 274.897 734.221 284.149C733.621 277.557 731.302 272.478 729.392 266.296L729.199 265.663L730.139 265.828C730.63 267.035 731.107 268.259 731.649 269.444C732.198 270.643 732.313 271.267 733.628 271.719C739.021 269.944 750.797 259.186 754.078 254.681C756.892 250.818 752.307 243.065 751.877 238.808C751.848 238.526 751.831 238.243 751.807 237.961Z"/>
	<path fill="#FEFEFE" transform="scale(3.42819 3.42819)" d="M292.786 637.626C298.612 637.048 306.493 637.239 311.707 640.1C319.155 644.186 326.138 650.539 332.983 655.652L382.245 692.851L473.045 760.911C492.907 775.741 513.048 790.317 532.508 805.673C528.456 808.84 523.869 811.568 519.639 814.521C506.698 823.554 493.588 832.29 480.561 841.189L429.967 875.475C419.252 882.718 408.054 891.849 396.025 896.654C386.07 899.023 376.466 899.183 367.48 893.646C358.845 888.326 350.744 881.192 342.542 875.151L284.11 832.223Q240.627 800.778 197.591 768.726C186.586 760.537 173.608 752.456 163.421 743.526C160.653 741.1 158.899 737.979 158.132 734.381C157.212 730.064 158.105 726.013 160.634 722.398C162.318 719.992 164.638 718.12 167.017 716.434C173.012 712.185 179.498 708.491 185.638 704.436Q210.818 687.641 236.21 671.168L264.123 652.809C269.652 649.095 275.072 644.922 280.886 641.678C284.761 639.516 288.429 638.359 292.786 637.626Z"/>
	<path fill="#ABC1F8" transform="scale(3.42819 3.42819)" d="M288.351 739.894C288.891 739.859 289.177 739.819 289.75 739.891C293.823 740.4 297.475 744.452 299.723 747.586L299.337 747.953C294.161 752.953 287.497 756.88 281.574 760.973Q267.762 770.613 253.777 780C253.123 780.379 252.512 780.56 251.731 780.501C249.435 780.328 245.698 778.016 244.211 776.319C243.339 775.324 243.002 774.273 243.23 772.951C243.569 770.985 245.191 769.311 246.65 768.08C251.888 763.659 258.43 760.154 264.156 756.321C272.267 750.89 280.034 745.025 288.351 739.894Z"/>
	<path fill="#ABC1F8" transform="scale(3.42819 3.42819)" d="M395.371 725.962C396.02 725.879 396.677 725.817 397.332 725.832C400.195 725.897 403.055 727.975 404.954 729.967C406.157 731.229 406.831 732.302 406.783 734.088C404.92 737.492 368.782 761.327 362.323 765.725C361.801 765.833 361.302 765.885 360.768 765.874Q360.225 765.865 359.687 765.801Q359.148 765.737 358.618 765.619Q358.089 765.501 357.573 765.33Q357.058 765.159 356.563 764.938Q356.068 764.716 355.597 764.446Q355.127 764.175 354.686 763.859Q354.245 763.543 353.838 763.183Q353.432 762.824 353.063 762.426C351.775 761.014 350.935 759.562 351.034 757.612C352.257 754.94 389.958 729.515 395.371 725.962Z"/>
	<path fill="#ABC1F8" transform="scale(3.42819 3.42819)" d="M353.364 695.876C355.414 696.567 357.335 697.573 359.169 698.715C361.212 699.987 363.655 701.518 364.224 703.953C359.95 709.415 327.29 731.266 320.315 735.18C319.333 735.407 318.262 735.549 317.252 735.48C315.055 735.329 312.165 733.857 310.883 732.046C309.918 730.682 309.222 728.447 309.684 726.791C310.789 722.831 347.3 699.618 353.364 695.876Z"/>
	<path fill="#ABC1F8" transform="scale(3.42819 3.42819)" d="M478.721 788.493C480.877 788.356 482.735 788.499 484.613 789.685C486.964 791.17 488.83 793.394 489.418 796.128C488.955 797.598 488.388 798.075 487.213 799.099C481.43 804.141 474.211 808.371 467.869 812.738C460.403 817.88 452.824 823.884 444.845 828.153C443.399 828.296 441.91 828.274 440.531 827.77C436.92 826.449 435.4 823.181 433.97 819.903C439.522 813.419 448.603 808.729 455.642 803.984C463.324 798.805 470.894 793.452 478.721 788.493Z"/>
	<path fill="#ABC1F8" transform="scale(3.42819 3.42819)" d="M438.498 758.001C439.1 757.998 439.7 758.001 440.301 758.041C442.968 758.22 446.672 760.073 448.212 762.295C448.931 763.332 449.323 764.303 449.036 765.569C448.778 766.71 448.057 767.424 447.204 768.155C442.221 772.428 436.106 775.964 430.667 779.669C422.013 785.564 413.435 791.756 404.546 797.281C403.479 797.397 402.445 797.447 401.383 797.231C399.125 796.77 395.657 794.453 394.542 792.415C393.938 791.309 393.64 790.262 394.115 789.045C395.738 784.893 432.548 760.814 438.498 758.001Z"/>
	<path fill="#ABC1F8" transform="scale(3.42819 3.42819)" d="M331.744 769.921C334.614 770.721 337.14 771.925 339.325 773.997C340.597 775.203 341.048 776.248 341.146 778.021C340 781.077 300.127 807.683 294.289 811.416Q293.653 811.304 293.021 811.168C290.414 810.598 287.116 809.341 285.703 806.897C284.892 805.496 284.896 803.883 285.416 802.386C286.617 798.923 325.911 772.914 331.744 769.921Z"/>
	<path fill="#ABC1F8" transform="scale(3.42819 3.42819)" d="M374.404 801.108C374.916 801.209 375.135 801.237 375.607 801.376C378.116 802.111 382.089 803.836 383.127 806.507C383.592 807.703 383.516 808.375 383.074 809.542C378.201 814.192 341.001 839.915 335.197 842.276C334.213 841.969 333.206 841.653 332.276 841.206C330.231 840.222 326.71 837.798 326.209 835.36C326.051 834.592 325.883 833.793 326.341 833.114C328.877 829.351 369.247 802.571 374.404 801.108Z"/>
	<path fill="#ABC1F8" transform="scale(3.42819 3.42819)" d="M413.515 831.939C416.177 831.817 418.644 832.699 420.687 834.409C422.455 835.889 424.104 837.494 424.303 839.892C422.611 844.653 385.735 867.384 379.334 871.481C378.813 871.637 378.559 871.732 377.979 871.8C375.455 872.095 372.654 871.077 370.738 869.445C369.615 868.489 367.959 866.227 368.116 864.658C368.557 860.26 407.25 836.028 413.515 831.939Z"/>
	<path fill="#040305" transform="scale(3.42819 3.42819)" d="M221.932 699.135C224.528 699.093 226.866 699.265 229.275 700.293C234.353 702.461 255.83 717.061 257.009 721.927C257.241 722.885 257.074 723.498 256.657 724.348C254.126 729.505 223.409 749.557 217.388 751.452C214.054 751.791 210.185 752.062 207.112 750.483C201.832 747.77 182.878 733.867 181.733 728.615C181.393 727.054 182.226 725.568 183.113 724.332C186.688 719.354 211.165 703.225 217.402 700.335C218.838 699.67 220.38 699.385 221.932 699.135Z"/>
	<path fill="#1A8ED6" transform="scale(3.42819 3.42819)" d="M286.082 656.614C291.547 656.681 295.903 658.637 300.339 661.703C306.558 666.001 319.449 672.955 320.617 680.677C320.886 682.451 320.618 683.808 319.508 685.255C315.768 690.136 292.073 706.044 286.058 708.741C284.538 709.422 282.837 709.658 281.202 709.898C277.305 709.79 274.357 708.95 270.947 707.101C265.682 704.246 247.679 691.748 246.422 686.513C245.891 684.302 246.971 681.754 248.214 679.972C252.191 674.275 272.773 661.464 279.35 658.487C281.559 657.488 283.702 657 286.082 656.614Z"/>
	<defs>
		<linearGradient id="gradient_1" gradientUnits="userSpaceOnUse" x1="734.06378" y1="313.24078" x2="526.39661" y2="339.82831">
			<stop offset="0" stop-color="#3AB73D"/>
			<stop offset="1" stop-color="#6BDD67"/>
		</linearGradient>
	</defs>
	<path fill="url(#gradient_1)" transform="scale(3.42819 3.42819)" d="M534.471 130.006C535.233 129.904 535.992 129.792 536.763 129.791C540.851 129.785 544.789 132.377 548.139 134.477C559.522 141.612 570.264 150.196 581.266 157.938L642.996 200.466Q666.562 216.498 689.768 233.048C698.834 239.386 709.08 245.532 717.028 253.221C727.647 263.496 731.055 275.441 731.329 289.839C731.633 305.821 731.253 321.873 731.232 337.862L731.107 436.947L731.104 487.745C731.135 497.287 731.808 507.261 730.861 516.736C730.588 519.463 729.612 521.222 727.735 523.17C726.643 523.551 725.672 523.828 724.498 523.738C721.435 523.501 718.112 520.833 715.591 519.212C696.817 507.137 678.562 494.199 660.038 481.74L575.858 425.349Q565.66 418.376 555.218 411.774C548.329 407.366 539.468 402.706 533.944 396.634C532.95 392.713 532.092 388.923 531.755 384.887C530.578 370.824 531.49 354.005 531.493 339.685L531.513 251.402L531.492 173.126L531.473 148.395C531.471 144.044 531.178 139.451 531.576 135.126C531.78 132.911 533.081 131.644 534.471 130.006Z"/>
	<path fill="#040305" transform="scale(3.42819 3.42819)" d="M678.553 333.963C679.615 334.1 680.717 334.283 681.741 334.593C688.524 336.646 694.951 345.125 698.149 351.103C700.753 355.971 703.678 363.194 701.799 368.672C700.923 371.224 699.229 372.224 696.903 373.344C695.415 373.255 693.9 373.118 692.482 372.625C685.658 370.253 679.599 361.853 676.435 355.686C674.018 350.976 671.29 344.204 673.177 338.976C674.133 336.326 676.115 335.104 678.553 333.963Z"/>
	<path fill="#FEFEFE" transform="scale(3.42819 3.42819)" d="M570.894 328.633C579.355 327.854 586.566 330.444 593.697 334.834C612.899 346.654 626.941 367.891 631.968 389.716C634.57 401.013 635.932 417.26 629.203 427.467C626.168 432.072 622.502 433.923 617.306 434.986C610.597 434.833 604.939 432.802 599.169 429.488C578.426 417.574 562.221 394.62 556.048 371.736C553.227 361.281 551.854 347.609 557.696 337.889C560.78 332.757 565.179 330.005 570.894 328.633Z"/>
	<path fill="#040305" transform="scale(3.42819 3.42819)" d="M595.692 362.668C596.506 363.085 597.041 363.409 597.697 364.07C598.449 364.829 598.267 365.067 598.034 366.117C597.518 368.435 596.221 370.985 595.378 373.23C593.047 379.442 592.538 384.382 592.473 391.018L592.328 391.578C591.665 389.841 591.71 387.9 591.599 386.057C591.021 376.444 593.145 371.702 595.692 362.668Z"/>
	<path fill="#040305" transform="scale(3.42819 3.42819)" d="M575.316 350.824C578 350.857 580.268 351.802 582.405 353.416C587.064 356.935 589.8 363.097 590.551 368.784C591.172 373.486 590.483 376.888 587.567 380.607C584.774 380.499 581.814 378.726 579.799 376.89C575.298 372.787 572.597 366.203 572.322 360.173C572.152 356.459 572.773 353.579 575.316 350.824Z"/>
	<path fill="#FEFEFE" transform="scale(3.42819 3.42819)" d="M577.618 355.372C578.85 355.387 579.971 355.437 581.09 356.01C583.977 357.487 585.842 360.431 586.821 363.432C588.337 368.078 588.211 372.389 586.07 376.752C585.07 376.619 583.992 376.498 583.065 376.081C579.8 374.613 577.47 370.516 576.51 367.235C575.214 362.807 575.364 359.37 577.618 355.372Z"/>
	<path fill="#040305" transform="scale(3.42819 3.42819)" d="M596.58 380.382C598.828 380.757 600.982 381.474 602.841 382.821C608.613 387.004 612.358 394.702 613.26 401.703C613.798 405.878 613.226 408.994 610.673 412.341C607.812 412.202 605.646 411.437 603.325 409.716C598.081 405.827 595.081 399.33 594.144 392.987C593.466 388.401 593.761 384.157 596.58 380.382Z"/>
	<path fill="#FEFEFE" transform="scale(3.42819 3.42819)" d="M599.62 385.234C600.659 385.221 601.695 385.373 602.634 385.845C606.081 387.576 608.125 391.571 609.142 395.11C610.437 399.613 610.614 404.416 608.276 408.579C606.484 408.142 604.836 407.61 603.367 406.457C599.756 403.623 597.502 398.828 597.102 394.309C596.781 390.692 597.349 388.059 599.62 385.234Z"/>
	<path fill="#FEFEFE" transform="scale(3.42819 3.42819)" d="M575.872 201.214C582.8 201.091 589.989 204.163 595.782 207.709C614.897 219.41 628.359 240.335 633.326 261.999C635.688 272.297 635.679 285.131 629.687 294.263C625.905 300.027 620.645 303.074 614.035 304.426C604.297 304.671 595.881 301.604 587.989 295.947C571.377 284.04 558.288 261.6 554.996 241.534C553.323 231.33 553.49 218.1 560.018 209.485C564.046 204.17 569.465 201.994 575.872 201.214Z"/>
	<path fill="#040305" transform="scale(3.42819 3.42819)" d="M578.493 225.383C581.859 225.257 583.716 226.024 586.613 227.6C587.993 228.351 589.205 229.016 589.675 230.585C588.414 232.443 585.731 228.806 582.563 229.787C581.626 230.077 580.816 231.286 580.412 232.163C579.402 234.363 579.668 236.753 580.538 238.953C582.36 243.556 585.042 245.33 589.36 247.125C591.167 243.331 594.026 233.477 597.096 231.204L597.954 231.499C599.361 234.875 597.41 238.17 596.204 241.372C593.552 247.765 591.354 254.982 588.119 261.047C587.371 262.45 586.702 263.506 585.158 263.976C584.898 263.64 584.72 263.468 584.619 263.005C583.754 259.035 586.54 254.216 588.13 250.705Q587.518 250.415 586.916 250.103C582.11 247.595 578.907 242.605 577.352 237.518C575.971 232.998 576.237 229.5 578.493 225.383Z"/>
	<path fill="#040305" transform="scale(3.42819 3.42819)" d="M597.655 251.376C599.614 251.432 601.658 251.949 603.364 252.918C608.937 256.084 612.343 262.452 613.815 268.519C615.012 273.452 614.888 277.44 612.233 281.791C609.915 282.26 607.774 281.756 605.727 280.609C600.959 277.939 598.352 272.334 597.011 267.252C595.633 262.03 594.866 256.227 597.655 251.376Z"/>
	<path fill="#FEFEFE" transform="scale(3.42819 3.42819)" d="M601.025 255.249C602.044 255.47 603.114 255.725 604.015 256.267C607.546 258.39 609.841 262.735 610.672 266.649C611.56 270.825 611.227 274.13 608.922 277.727C607.637 277.5 606.3 277.186 605.18 276.494C601.861 274.443 600.115 270.231 599.424 266.555C598.69 262.647 598.668 258.58 601.025 255.249Z"/>
	<path fill="#FEFEFE" transform="scale(3.42819 3.42819)" d="M729.487 526.292C743.13 537.532 757.702 547.764 771.906 558.282L834.408 605.11C844.767 612.958 860.015 622.356 868.407 631.922C871.583 635.543 873.881 642.012 874.398 646.766C875.219 654.316 872.634 661.864 867.814 667.656C862.438 674.116 853.843 678.617 846.891 683.169Q836.287 690.071 825.802 697.153L747.326 750.482Q712.93 774.237 678.191 797.486C667.148 804.944 656.151 813.37 644.559 819.888C637.697 823.747 629.583 825.687 621.781 826.368C610.538 827.349 598.231 825.805 588.308 820.11C581.7 816.318 575.581 811.136 569.5 806.558L536.757 781.865L424.722 698.131L239.544 559.413L185.213 518.948C178.544 513.896 171.565 509.013 165.156 503.645C158.879 498.389 154.867 492.408 154.311 483.996C153.766 475.762 157.073 467.422 162.566 461.34C169.618 453.53 186.239 444.163 195.475 437.9L277.891 382.611C306.413 363.416 334.763 343.893 363.498 325.022C373.273 318.602 382.887 310.959 393.076 305.307C399.483 301.753 406.793 299.999 414.088 299.702C420.916 299.425 428.545 300.236 434.808 303.124C445.208 307.919 455.742 317.404 464.921 324.359C486.024 340.351 506.742 357.393 528.751 372.097C528.799 379.596 528.615 386.805 530.438 394.133L484.897 359.973C477.092 354.121 468.705 346.286 459.778 342.381Q458.656 341.891 457.503 341.479Q456.35 341.067 455.172 340.736Q453.993 340.405 452.794 340.156Q451.595 339.907 450.382 339.741Q449.169 339.575 447.948 339.494Q446.726 339.412 445.502 339.415Q444.278 339.418 443.056 339.505Q441.835 339.593 440.623 339.764C435.881 340.445 431.635 342.012 427.535 344.473C417.464 350.519 407.793 357.783 398.028 364.352L335.336 406.399L268.214 450.759C250.954 461.994 233.321 472.971 216.516 484.862C214.193 486.505 211.974 488.339 210.313 490.674C207.966 493.972 207.39 498.059 208.182 501.993C209.056 506.332 211.776 509.178 215.029 511.936C220.097 516.234 225.712 520.076 231.05 524.039Q245.451 534.628 259.674 545.453L394.756 646.433L499.218 724.34Q524.955 743.842 551.05 762.862C556.397 766.708 561.596 771.23 567.152 774.717C576.079 780.319 588.655 781.37 598.748 778.986C603.724 777.811 608.258 775.895 612.632 773.254C622.88 767.066 632.626 759.704 642.536 752.976L695.85 717.185L773.466 664.998C785.012 657.202 797.043 649.749 808.315 641.586C811.089 639.576 814.627 636.963 816.419 634.009C819.358 629.168 820.293 623.5 818.757 618.02C817.768 614.488 815.918 611.448 813.084 609.118C809.381 605.149 803.414 601.658 799.037 598.335C782.367 585.677 765.151 573.802 748.46 561.203C736.443 552.132 724.106 542.879 712.534 533.269C706.613 528.352 701.618 522.523 695.456 517.825C694.861 518.145 694.185 518.424 693.514 518.542C690.025 519.152 685.226 517.985 682.03 516.614C669.025 511.036 656.689 501.43 644.968 493.562Q618.072 475.227 590.638 457.709L589.978 457.34C580.955 450.165 568.924 442.7 561.027 434.703L560.645 434.565C553.75 428.436 546.574 421.626 540.714 414.484C541.79 413.244 542.907 412.469 544.281 411.582C541.837 409.009 539.71 406.354 537.621 403.487Q593.987 439.784 649.135 477.906L692.846 507.584C701.896 513.704 711.515 521.122 721.353 525.81C724.202 527.168 726.474 526.949 729.487 526.292Z"/>
	<defs>
		<linearGradient id="gradient_2" gradientUnits="userSpaceOnUse" x1="543.41418" y1="411.07141" x2="564.03796" y2="431.48712">
			<stop offset="0" stop-color="#0D0A16"/>
			<stop offset="1" stop-color="#202955"/>
		</linearGradient>
	</defs>
	<path fill="url(#gradient_2)" transform="scale(3.42819 3.42819)" d="M544.281 411.582C551.798 418.234 560.604 422.587 568.471 428.614C566.238 430.936 563.6 432.781 561.027 434.703L560.645 434.565C553.75 428.436 546.574 421.626 540.714 414.484C541.79 413.244 542.907 412.469 544.281 411.582Z"/>
	<path fill="#040305" transform="scale(3.42819 3.42819)" d="M332.528 370.069C332.66 370.074 332.792 370.074 332.924 370.083C335.546 370.259 338.929 370.816 340.526 373.188C341.303 374.341 341.088 375.368 340.819 376.634C338.609 380.017 286.233 415.321 280.443 417.555C279.435 417.617 278.423 417.675 277.418 417.532C275.715 417.291 273.265 416.017 272.421 414.441C271.843 413.362 271.934 412.487 272.273 411.375C272.733 409.867 273.866 409.02 275.056 408.087C286.492 399.115 299.713 391.505 311.912 383.556C318.671 379.152 325.388 373.736 332.528 370.069Z"/>
	<path fill="#0D0A2A" transform="scale(3.42819 3.42819)" d="M561.027 434.703C563.6 432.781 566.238 430.936 568.471 428.614C579.19 435.36 589.862 442.081 600.177 449.439C615.128 460.022 629.546 471.264 644.606 481.705L677.403 504.629C683.418 508.883 689.838 513.066 695.456 517.825C694.861 518.145 694.185 518.424 693.514 518.542C690.025 519.152 685.226 517.985 682.03 516.614C669.025 511.036 656.689 501.43 644.968 493.562Q618.072 475.227 590.638 457.709L589.978 457.34C580.955 450.165 568.924 442.7 561.027 434.703Z"/>
	<path fill="#4878F1" transform="scale(3.42819 3.42819)" d="M264.534 218.274C276.28 209.695 288.504 201.78 300.516 193.585L380.988 138.913Q401.746 124.68 422.294 110.145C430.573 104.293 438.901 97.5738 447.768 92.7102Q451.737 90.5347 455.878 88.7088Q460.019 86.883 464.302 85.4204Q468.585 83.9579 472.978 82.8694Q477.371 81.7809 481.841 81.0746C515.156 75.8421 540.803 84.2784 567.443 103.767C565.182 103.715 562.576 103.469 560.405 104.174C554.428 106.113 539.609 119.83 534.408 124.728C529.654 129.206 528.607 132.137 528.453 138.482C527.769 166.523 528.517 194.746 528.55 222.805L528.504 368.443Q504.894 350.922 481.599 332.984C470.368 324.396 446.731 304.748 434.503 299.811C426.613 296.625 416.873 296.044 408.51 297.215C403.173 297.962 397.956 299.378 393.143 301.834C386.449 305.249 380.176 309.998 373.944 314.198L345.041 333.579Q291.122 370.172 236.831 406.214L206.075 427.021C200.887 430.556 195.706 434.557 190.285 437.675C190.268 437.523 190.246 437.371 190.235 437.217C187.813 405.429 206.975 371.569 227.979 349.097C233.539 343.148 242.102 336.965 246.687 331.421C246.868 331.202 247.043 330.98 247.221 330.759L247.599 330.894C251.687 328.442 255.643 325.32 259.44 322.445C231.858 318.182 236.032 312.234 215.043 298.518C214.226 297.985 213.551 297.503 212.856 296.806C207.803 294.286 202.77 292.221 197.218 291.115C194.13 290.889 191.036 290.792 187.943 290.673Q192.196 281.865 196.813 273.242C213.085 243.061 231.824 228.054 264.534 218.274Z"/>
	<path fill="#102DE3" transform="scale(3.42819 3.42819)" d="M342.557 259.88Q342.563 261.703 342.48 263.524Q342.396 265.346 342.223 267.161Q342.05 268.976 341.788 270.78Q341.526 272.584 341.176 274.373Q340.825 276.162 340.387 277.932Q339.948 279.702 339.424 281.448Q338.899 283.194 338.289 284.912Q337.679 286.63 336.985 288.316Q336.291 290.002 335.515 291.651Q334.739 293.301 333.882 294.911Q333.026 296.52 332.091 298.086Q331.157 299.651 330.146 301.169Q329.136 302.686 328.052 304.152Q326.968 305.618 325.813 307.029Q324.659 308.44 323.436 309.792Q322.213 311.145 320.925 312.435C307.377 326.084 289.607 334.614 270.205 334.678C262.64 334.703 254.645 333.798 247.599 330.894C251.687 328.442 255.643 325.32 259.44 322.445C274.444 323.081 287.601 319.539 300.807 312.44C320.915 301.631 334.391 285.242 340.949 263.441C341.73 262.354 342.089 261.127 342.557 259.88Z"/>
	<path fill="#102DE3" transform="scale(3.42819 3.42819)" d="M469.252 201.929C469.703 202.589 470.13 203.229 470.352 204.007C472.538 211.672 471.052 222.06 467.647 229.169C463.109 238.642 453.972 245.975 444.119 249.336C433.423 252.985 422.544 251.767 412.513 246.734C402.089 241.504 393.763 232.476 390.123 221.315C388.582 216.59 386.418 206.456 388.776 201.86C392.39 213.581 398.772 222.473 409.756 228.343Q410.676 228.831 411.619 229.272Q412.562 229.714 413.526 230.108Q414.49 230.501 415.473 230.847Q416.455 231.192 417.453 231.488Q418.452 231.784 419.464 232.029Q420.476 232.275 421.499 232.47Q422.521 232.665 423.553 232.809Q424.584 232.953 425.621 233.045Q426.659 233.137 427.699 233.177Q428.74 233.217 429.781 233.206Q430.822 233.194 431.862 233.131Q432.901 233.067 433.936 232.952Q434.971 232.837 435.999 232.67Q437.026 232.503 438.045 232.285Q439.063 232.068 440.069 231.799Q441.075 231.531 442.067 231.213Q443.017 230.917 443.952 230.575Q444.886 230.233 445.802 229.845Q446.719 229.457 447.615 229.024Q448.51 228.591 449.384 228.114Q450.257 227.637 451.106 227.118Q451.955 226.599 452.777 226.038Q453.599 225.477 454.393 224.877Q455.186 224.276 455.949 223.637Q456.712 222.998 457.442 222.322Q458.172 221.646 458.868 220.934Q459.564 220.223 460.224 219.478Q460.883 218.733 461.505 217.957Q462.128 217.18 462.711 216.374Q463.294 215.567 463.836 214.733Q464.379 213.899 464.879 213.039Q465.38 212.179 465.837 211.295C467.379 208.29 468.339 205.17 469.252 201.929Z"/>
	<path fill="#FEFEFE" transform="scale(3.42819 3.42819)" d="M388.776 201.86C386.601 189.675 387.938 177.845 395.171 167.472Q395.73 166.669 396.327 165.895Q396.925 165.122 397.561 164.378Q398.196 163.635 398.868 162.924Q399.539 162.213 400.245 161.537Q400.951 160.86 401.69 160.219Q402.428 159.578 403.198 158.975Q403.968 158.372 404.766 157.807Q405.565 157.243 406.39 156.719Q407.216 156.195 408.067 155.712Q408.917 155.23 409.791 154.79Q410.664 154.351 411.558 153.955Q412.453 153.559 413.365 153.208Q414.278 152.858 415.207 152.552Q416.136 152.247 417.079 151.989Q418.022 151.73 418.977 151.518Q419.932 151.307 420.896 151.143C431.56 149.296 443.32 151.74 452.18 157.995Q453.049 158.613 453.886 159.274Q454.724 159.934 455.527 160.635Q456.331 161.336 457.099 162.075Q457.868 162.815 458.599 163.592Q459.33 164.368 460.021 165.18Q460.713 165.991 461.364 166.836Q462.015 167.681 462.624 168.557Q463.232 169.432 463.797 170.337Q464.361 171.242 464.881 172.173Q465.4 173.105 465.873 174.06Q466.346 175.016 466.771 175.994Q467.196 176.972 467.573 177.97Q467.949 178.968 468.276 179.983Q468.603 180.998 468.879 182.028Q469.156 183.058 469.381 184.1Q469.606 185.143 469.78 186.195Q470.104 188.151 470.233 190.129Q470.362 192.107 470.296 194.088Q470.229 196.069 469.968 198.034Q469.706 199.999 469.252 201.929C468.339 205.17 467.379 208.29 465.837 211.295Q465.38 212.179 464.879 213.039Q464.379 213.899 463.836 214.733Q463.294 215.567 462.711 216.374Q462.128 217.18 461.505 217.957Q460.883 218.733 460.224 219.478Q459.564 220.223 458.868 220.935Q458.172 221.646 457.442 222.322Q456.712 222.998 455.949 223.637Q455.186 224.276 454.393 224.877Q453.599 225.477 452.777 226.038Q451.955 226.599 451.106 227.118Q450.257 227.637 449.384 228.114Q448.51 228.591 447.615 229.024Q446.719 229.457 445.802 229.845Q444.886 230.233 443.952 230.575Q443.017 230.917 442.067 231.213Q441.075 231.531 440.069 231.799Q439.063 232.068 438.045 232.285Q437.026 232.503 435.999 232.67Q434.971 232.837 433.936 232.952Q432.901 233.067 431.862 233.131Q430.822 233.194 429.781 233.206Q428.74 233.217 427.699 233.177Q426.659 233.137 425.621 233.045Q424.584 232.953 423.553 232.809Q422.521 232.665 421.498 232.47Q420.476 232.275 419.464 232.029Q418.452 231.784 417.453 231.488Q416.455 231.192 415.473 230.847Q414.49 230.501 413.526 230.108Q412.562 229.714 411.619 229.272Q410.676 228.831 409.756 228.343C398.772 222.473 392.39 213.581 388.776 201.86Z"/>
	<path fill="#F2A96F" transform="scale(3.42819 3.42819)" d="M425.721 161.178C433.126 160.704 440.314 161.955 446.554 166.216C453.292 170.816 457.87 178.301 459.399 186.268Q459.551 187.034 459.664 187.807Q459.778 188.58 459.852 189.357Q459.925 190.135 459.96 190.915Q459.994 191.695 459.989 192.476Q459.984 193.257 459.939 194.037Q459.894 194.817 459.81 195.593Q459.726 196.369 459.602 197.141Q459.479 197.912 459.316 198.676Q459.154 199.44 458.953 200.194Q458.752 200.949 458.513 201.693Q458.274 202.436 457.998 203.167Q457.722 203.897 457.409 204.613Q457.096 205.328 456.747 206.027Q456.398 206.726 456.014 207.406Q455.63 208.086 455.212 208.746Q454.795 209.406 454.344 210.044C448.99 217.657 441.309 221.133 432.42 222.715C424.34 223.716 415.793 221.541 409.345 216.532Q408.749 216.067 408.177 215.573Q407.606 215.079 407.059 214.556Q406.513 214.034 405.993 213.485Q405.473 212.937 404.982 212.362Q404.49 211.788 404.028 211.19Q403.566 210.592 403.134 209.972Q402.702 209.352 402.302 208.711Q401.901 208.07 401.534 207.41Q401.166 206.749 400.831 206.071Q400.497 205.394 400.197 204.7Q399.897 204.006 399.632 203.298Q399.367 202.591 399.137 201.871Q398.908 201.15 398.715 200.42Q398.522 199.689 398.366 198.949Q398.209 198.21 398.09 197.464Q397.971 196.717 397.889 195.966C396.906 187.405 399.337 178.31 404.83 171.622C410.246 165.028 417.45 162.117 425.721 161.178Z"/>
	<path fill="#2EB338" transform="scale(3.42819 3.42819)" d="M264.534 218.274L265.556 218.256C270.117 218.141 274.802 216.973 279.367 216.544C293.06 215.261 310.264 215.859 320.464 204.911C325.465 199.543 327.267 193.241 329.03 186.299C329.515 184.39 329.858 182.294 330.808 180.562C332.529 184.67 332.955 189.488 334.247 193.817C339.232 210.517 342.765 226.542 343.129 244.052C343.238 249.316 342.369 254.696 342.557 259.88C342.089 261.127 341.73 262.354 340.949 263.441C334.391 285.242 320.915 301.631 300.807 312.44C287.601 319.539 274.444 323.081 259.44 322.445C231.858 318.182 236.032 312.234 215.043 298.518C214.226 297.985 213.551 297.503 212.856 296.806C207.803 294.286 202.77 292.221 197.218 291.115C194.13 290.889 191.036 290.792 187.943 290.673Q192.196 281.865 196.813 273.242C213.085 243.061 231.824 228.054 264.534 218.274Z"/>
	<path fill="#040305" transform="scale(3.42819 3.42819)" d="M264.534 218.274L265.556 218.256C270.117 218.141 274.802 216.973 279.367 216.544C293.06 215.261 310.264 215.859 320.464 204.911C325.465 199.543 327.267 193.241 329.03 186.299C329.515 184.39 329.858 182.294 330.808 180.562C332.529 184.67 332.955 189.488 334.247 193.817C339.232 210.517 342.765 226.542 343.129 244.052C343.238 249.316 342.369 254.696 342.557 259.88C342.089 261.127 341.73 262.354 340.949 263.441Q341.305 260.124 341.517 256.795Q341.728 253.466 341.794 250.131Q341.859 246.796 341.78 243.461Q341.7 240.127 341.475 236.799Q341.249 233.471 340.879 230.155Q340.509 226.84 339.994 223.545Q339.48 220.249 338.822 216.979Q338.164 213.708 337.364 210.47C335.734 203.679 333.425 197.034 331.852 190.241C326.855 221.364 319.69 248.927 292.586 268.478C283.607 274.955 273.615 279.547 262.769 281.726L263.111 281.369L261.991 281.727C262.823 281.277 263.224 281.203 264.125 280.99C285.386 275.96 303.04 259.293 313.952 241.041C321.899 227.748 326.094 211.773 328.709 196.643C325.859 203.361 323.101 210.191 319.396 216.491C306.675 238.119 285.751 253.942 262.707 263.192C254.824 266.357 231.532 274.583 224.152 275.398C231.51 271.309 241.081 269.411 249.022 266.503C271.937 258.11 290.639 247.819 306.965 229.097C312.652 222.575 318.012 215.323 321.229 207.227C307.121 217.643 291.26 217.088 274.503 218.694C250.076 221.035 225.897 234.747 210.796 254.016C202.765 264.264 196.352 276.884 190.903 288.686C197.603 289.331 208.271 291.294 212.856 296.806C207.803 294.286 202.77 292.221 197.218 291.115C194.13 290.889 191.036 290.792 187.943 290.673Q192.196 281.865 196.813 273.242C213.085 243.061 231.824 228.054 264.534 218.274Z"/>
	<path fill="#15244E" transform="scale(3.42819 3.42819)" d="M813.084 609.118C812.942 612.97 817.727 618.06 816.365 625.196C815.705 628.652 813.353 633.064 810.651 635.428C804.568 640.749 797.022 645.01 790.291 649.463Q775.443 659.34 760.759 669.458L623.471 762.035C609.399 771.669 598.667 779.61 580.648 776.092C574.775 774.945 569.64 772.377 564.718 769.035C539.301 751.776 515.425 732.082 490.645 713.932Q377.593 631.49 266.465 546.475C259.245 541.024 215.314 509.6 213.267 506.496Q212.885 505.922 212.563 505.311Q212.242 504.701 211.984 504.062Q211.726 503.422 211.534 502.759Q211.342 502.097 211.219 501.418Q211.096 500.739 211.042 500.051Q210.989 499.364 211.005 498.674Q211.022 497.985 211.109 497.3Q211.195 496.616 211.351 495.944C212.261 492.093 214.71 489.624 217.743 487.301C226.114 480.89 235.256 475.504 244.191 469.935Q259.011 460.576 273.575 450.823C305.332 429.303 337.593 408.614 369.475 387.306C388.032 374.905 406.192 361.709 424.922 349.604C434.031 343.717 444.035 341.335 454.777 343.819C458.353 344.646 464.742 346.914 466.632 350.322C466.768 350.567 466.884 350.822 467.01 351.072Q488.689 367.357 510.535 383.416C517.263 388.388 525.767 393.173 531.267 399.436C535.063 403.759 536.983 409.828 540.714 414.484C546.574 421.626 553.75 428.436 560.645 434.565L561.027 434.703C568.924 442.7 580.955 450.165 589.978 457.34L590.638 457.709Q618.072 475.227 644.968 493.562C656.689 501.43 669.025 511.036 682.03 516.614C685.226 517.985 690.025 519.152 693.514 518.542C694.185 518.424 694.861 518.145 695.456 517.825C701.618 522.523 706.613 528.352 712.534 533.269C724.106 542.879 736.443 552.132 748.46 561.203C765.151 573.802 782.367 585.677 799.037 598.335C803.414 601.658 809.381 605.149 813.084 609.118Z"/>
	<path fill="#FEFEFE" transform="scale(3.42819 3.42819)" d="M232.427 488.904Q233.065 488.857 233.704 488.837C235.681 488.782 237.854 489.256 239.16 490.903C239.941 491.888 240.135 492.98 239.892 494.196C239.598 495.668 238.256 496.597 237.159 497.474L236.588 497.494C234.423 497.551 231.944 497.374 230.463 495.5C229.67 494.495 229.454 493.59 229.657 492.313C229.895 490.819 231.34 489.806 232.427 488.904Z"/>
	<path fill="#FEFEFE" transform="scale(3.42819 3.42819)" d="M261.984 467.964C262.829 467.969 263.654 468.05 264.485 468.201C266.317 468.532 268.313 469.495 269.269 471.189C269.899 472.305 269.906 473.48 269.412 474.658C268.827 476.052 267.316 476.793 266.073 477.493C263.685 477.432 261.655 477.302 259.867 475.513C258.972 474.618 258.446 473.463 258.594 472.173C258.84 470.039 260.361 469.065 261.984 467.964Z"/>
	<path fill="#FEFEFE" transform="scale(3.42819 3.42819)" d="M248.441 478.441C248.866 478.442 249.29 478.438 249.713 478.466C251.719 478.601 254.009 479.377 255.205 481.109C255.907 482.126 256.305 483.214 255.94 484.452C255.366 486.4 253.698 487.247 252.031 488.087C249.606 487.989 247.691 487.777 245.958 485.883C245.081 484.924 244.6 483.779 244.827 482.457C245.18 480.405 246.83 479.45 248.441 478.441Z"/>
	<path fill="#FEFEFE" transform="scale(3.42819 3.42819)" d="M421.338 361.478C421.57 361.448 421.801 361.409 422.033 361.386C424.33 361.16 426.377 361.384 428.137 363.013C429.059 363.866 429.654 364.955 429.535 366.251C429.351 368.253 427.905 369.549 426.413 370.685C424.048 370.971 421.913 371.097 419.965 369.476C418.982 368.658 418.352 367.508 418.384 366.202C418.437 364.015 419.82 362.799 421.338 361.478Z"/>
	<path fill="#FEFEFE" transform="scale(3.42819 3.42819)" d="M275.486 458.022C276.162 457.969 276.83 457.913 277.509 457.92C279.759 457.942 282.365 458.944 283.821 460.73C284.598 461.681 284.899 462.793 284.592 464.003C284.243 465.378 282.97 466.196 281.883 466.954C280.98 467.132 280.101 467.256 279.179 467.228C277.36 467.174 275.088 466.286 273.92 464.827C273.118 463.825 272.788 462.805 272.981 461.519C273.223 459.909 274.344 459.029 275.486 458.022Z"/>
	<path fill="#FEFEFE" transform="scale(3.42819 3.42819)" d="M436.42 350.508C437.281 350.462 438.157 350.411 439.019 350.469C440.661 350.578 442.786 351.672 443.752 353.049C444.472 354.075 444.869 355.224 444.536 356.48C444.024 358.415 442.449 359.338 440.829 360.23C440.618 360.254 440.407 360.286 440.195 360.301C438.055 360.456 435.655 360.296 434.063 358.664C433.123 357.7 432.878 356.69 432.989 355.38C433.174 353.203 434.871 351.81 436.42 350.508Z"/>
	<path fill="#2EB338" transform="scale(3.42819 3.42819)" d="M612.789 487.893C613.583 487.848 614.36 487.798 615.152 487.922C616.336 488.109 617.352 488.665 618.344 489.316C624.402 493.292 630.081 498.073 636.019 502.27C643.841 507.8 652.039 512.903 659.721 518.613C660.656 519.307 661.961 520.161 662.512 521.198C663.254 522.591 663.163 524.901 662.821 526.367C654.76 532.647 645.514 537.733 637.034 543.478C628.892 548.995 620.876 555.833 612.196 560.385C611.45 560.431 610.712 560.465 609.965 560.393C604.797 559.899 565.467 529.502 561.211 524.361C566.619 518.682 577.402 512.329 584.062 507.667C593.473 501.08 602.864 493.654 612.789 487.893Z"/>
	<path fill="#6DE164" transform="scale(3.42819 3.42819)" d="M739.847 580.444C740.803 580.439 741.767 580.448 742.704 580.666C746.985 581.664 785.19 610.578 787.62 614.284C787.587 615.205 787.6 616.49 787.153 617.312C786.164 619.133 742.835 648.683 737.848 651.361C736.712 651.97 735.468 652.288 734.216 652.561C733.984 652.51 733.751 652.464 733.52 652.407C731.27 651.859 729.256 650.64 727.33 649.394C721.005 645.303 715.134 640.304 709.014 635.894C702.527 631.219 695.571 627.018 689.313 622.054C688.021 621.029 686.479 619.823 685.71 618.34C685.423 617.787 685.331 617.839 685.542 617.347C686.979 613.99 733.57 583.495 739.847 580.444Z"/>
	<path fill="#FEFEFE" transform="scale(3.42819 3.42819)" d="M742.955 601.411C744.558 601.779 745.589 602.029 746.7 603.245C746.719 604.806 746.597 606.661 747.499 607.964C748.953 608.001 750.363 608.111 751.808 608.276C752.921 609.14 753.402 609.937 753.475 611.431C753.533 612.636 753.226 612.969 752.537 613.853C750.603 614.832 748.597 614.647 746.48 614.658C745.395 616.139 746.016 617.769 745.569 619.47C745.274 620.59 744.271 621.551 743.166 621.892C742.037 622.241 741.171 622.172 740.252 621.375C739.034 620.318 738.911 618.713 738.738 617.222L738.064 617.158C737.552 617.693 737.043 618.244 736.504 618.753C735.444 619.756 735.232 619.989 733.744 619.973C732.61 619.241 732.142 618.885 731.616 617.629C731.659 616.037 732.274 615.254 733.151 614.002C733.707 613.208 730.792 611.423 730.607 609.858C731.344 608.582 732.018 607.999 733.152 607.108C735.237 606.527 736.927 607.301 738.953 607.768C739.603 607.096 739.563 607.308 739.806 606.6C740.652 604.139 740.77 603.052 742.955 601.411Z"/>
	<path fill="#6DE164" transform="scale(3.42819 3.42819)" d="M674.605 535.005C675.896 534.99 677.21 534.96 678.497 535.065C680.799 535.252 682.859 536.605 684.76 537.804C693.069 543.047 700.821 549.509 708.759 555.312C714.059 559.187 722.982 563.864 726.928 568.841C727.698 569.812 728.036 570.29 727.858 571.559C724.187 575.895 681.923 603.751 675.393 607.074C672.747 606.962 670.974 606.469 668.657 605.169C662.629 601.789 623.131 574.328 621.965 570.109C625.299 565.664 668.268 537.626 674.605 535.005Z"/>
	<path fill="#FEFEFE" transform="scale(3.42819 3.42819)" d="M676.08 556.321C676.644 556.382 677.22 556.439 677.776 556.555C678.758 556.759 679.936 557.414 680.391 558.335C681.478 560.537 680.039 563.147 679.213 565.233C679.35 565.17 679.486 565.106 679.624 565.044C679.853 564.942 680.085 564.845 680.315 564.743C681.338 564.283 682.483 563.631 683.621 563.57C685.057 563.493 687.225 564.156 688.283 565.107C688.8 565.572 688.886 566.077 688.796 566.766C688.653 567.86 687.353 569.469 686.513 570.168C685.333 571.149 683.571 570.881 682.128 570.85C681.025 570.826 681.613 570.694 680.492 571.334C680.974 571.842 681.642 572.439 681.988 573.041C682.341 573.655 682.626 574.264 682.423 574.963C681.957 576.562 680.51 578.287 678.928 578.876C677.832 579.284 675.901 579.169 674.882 578.481C673.331 577.433 673.185 575.925 672.637 574.252C670.847 574.33 669.227 577.273 667.492 577.967C666.122 578.515 663.73 577.807 662.597 576.884C661.45 575.949 661.486 575.66 661.444 574.295C662.319 572.41 663.954 571.091 665.428 569.665C664.258 568.536 662.635 567.532 661.595 566.307C660.808 565.381 660.937 564.893 661.042 563.791C661.51 563.081 661.902 562.484 662.616 561.997C664.164 560.943 667.136 559.937 669.001 560.579C670.485 561.09 670.56 561.66 671.227 562.985C672.113 562.998 672.534 558.694 676.08 556.321Z"/>
	<path fill="#6DE164" transform="scale(3.42819 3.42819)" d="M671.317 625.491C672.344 625.467 673.513 625.412 674.497 625.746C678.342 627.051 711.488 653.22 716.438 657.53C717.987 658.88 719.458 660.271 720.392 662.124C717.276 666.349 673.915 695.668 667.063 699.73C665.592 700.602 664.062 701.166 662.429 701.659C661.203 701.616 659.876 701.6 658.726 701.13C655.21 699.692 620.6 674.658 616.236 670.776C614.783 669.483 613.764 668.363 612.945 666.597C613.672 664.648 615.163 663.419 616.74 662.143C625.183 655.313 635.222 649.617 644.268 643.579C653.224 637.601 661.964 630.811 671.317 625.491Z"/>
	<path fill="#FEFEFE" transform="scale(3.42819 3.42819)" d="M672.609 651.37C672.758 651.384 672.907 651.393 673.055 651.413C674.659 651.629 675.074 651.95 676.054 653.164C676.294 654.311 676.198 655.021 675.919 656.132C675.677 657.096 675.483 657.956 675.417 658.955C677.579 659.32 680.411 659.474 682.092 660.962C682.356 662.337 682.131 662.429 681.448 663.68C679.402 664.995 676.339 664.573 673.982 664.558L673.401 665.195C673.458 666.13 673.625 667.301 673.466 668.219C673.258 669.431 672.363 670.09 671.479 670.839C670.289 670.973 669.92 670.863 668.915 670.053C667.49 668.904 667.412 667.342 667.187 665.644L666.479 664.93C664.418 665.137 661.387 665.469 659.519 664.367C658.426 663.723 658.018 663.092 657.637 661.927L658.36 660.795C659.792 659.94 660.857 659.529 662.498 659.212C662.666 659.179 662.834 659.151 663.003 659.12C663.486 658.208 661.304 655.794 661.247 654.235C661.604 653.804 662.117 653.074 662.589 652.73C665.377 650.691 666.395 654.335 669.119 654.941C671.001 654.25 671.506 652.963 672.609 651.37Z"/>
	<path fill="#6DE164" transform="scale(3.42819 3.42819)" d="M471.674 583.023Q472.917 582.923 474.164 582.922C476.049 582.938 477.399 583.576 479.029 584.475C487.239 589.007 518.172 612.368 524.575 618.833C519.576 623.672 513.075 627.256 507.359 631.23C494.624 640.083 481.914 649.076 468.711 657.225C466.999 658.039 465.313 658.728 463.376 658.414C461.167 658.056 458.927 656.754 457.088 655.534C452.024 652.176 447.333 647.894 442.521 644.16C436.856 639.765 422.285 630.734 418.697 625.359C417.892 624.151 417.865 622.472 418.296 621.102C418.89 619.215 420.447 617.951 421.942 616.754C430.799 609.663 441.192 603.681 450.647 597.347C457.655 592.653 464.397 587.249 471.674 583.023Z"/>
	<path fill="#FEFEFE" transform="scale(3.42819 3.42819)" d="M470.695 610.741C472.106 611.379 472.727 611.438 473.529 612.798C473.433 613.345 473.233 614.132 473.258 614.705C473.31 615.893 473.371 616.037 474.218 616.867C475.676 616.934 477.385 616.837 478.727 617.456C479.417 617.774 479.372 618.138 479.626 618.788C478.621 622.754 474.457 619.823 472.008 621.954C471.526 623.832 471.394 625.309 469.729 626.44C468.134 626.505 467.893 626.624 466.579 625.766C464.728 621.377 460.775 623.005 459.027 619.518C460.102 617.926 461.587 618.668 462.842 617.325C462.448 616.277 461.925 615.19 461.971 614.052C462.001 613.315 462.585 613.097 463.101 612.651C465.116 612.485 465.932 613.607 467.85 614.107C469.084 613.272 469.847 611.942 470.695 610.741Z"/>
	<path fill="#6DE164" transform="scale(3.42819 3.42819)" d="M548.338 533.012C550.072 533.241 551.236 533.746 552.696 534.688C561.024 540.063 568.751 546.888 576.682 552.858C581.935 556.812 592.689 563.268 596.522 567.915C597.178 568.711 597.375 568.818 597.249 569.873C592.344 576.15 549.826 602.888 540.304 609.6C539.023 609.951 537.653 610.042 536.359 609.71C531.062 608.351 494.692 581.259 492.282 576.869C491.577 575.586 491.186 572.99 491.935 571.664C493.585 568.742 536.939 539 543.369 535.175C544.964 534.227 546.553 533.541 548.338 533.012Z"/>
	<path fill="#FEFEFE" transform="scale(3.42819 3.42819)" d="M548.822 561.368C549.966 561.328 551.274 561.433 552.377 561.736C553.534 562.054 553.54 562.145 554.116 563.135C553.743 564.373 553.32 565.476 553.495 566.788C554.984 567.819 556.026 566.486 557.782 567.395C558.445 568.599 558.65 569.112 558.489 570.487C557.187 572.055 553.793 572.457 551.796 573.032C552.999 573.725 554.76 574.551 555.427 575.819C556.019 576.942 555.923 577.401 555.575 578.512C555.075 578.976 554.651 579.243 553.989 579.434C550.618 580.404 549.009 579.264 546.174 577.676C543.702 580.353 542.454 581.627 538.811 582.209C538.331 581.831 538.035 581.62 537.593 581.158C536.712 580.238 536.474 579.55 536.435 578.317C537.195 577.536 537.828 576.807 538.426 575.896L538.101 575.372C537.289 575.634 536.278 576.064 535.435 576.134C534.279 576.229 533.265 575.705 532.622 574.733C531.815 573.513 531.889 573.236 532.257 571.937C533.673 570.55 535.879 569.945 537.699 569.223L537.861 568.44Q536.269 568.129 534.666 567.879L534.299 567.093C535.6 564.005 537.955 562.86 540.665 561.173C542.361 562.514 543.832 564.134 545.347 565.672C546.466 564.207 547.654 562.794 548.822 561.368Z"/>
	<path fill="#6DE164" transform="scale(3.42819 3.42819)" d="M598.347 674.935C598.677 674.954 599.009 674.957 599.337 674.992C600.832 675.152 602.108 675.646 603.394 676.408C609.095 679.783 646.36 708.006 649.36 712.053C647.959 714.063 646.007 715.666 644.049 717.118C638.048 721.568 595.211 750.349 591.321 751.453C587.32 751.483 583.751 749.308 580.556 747.102C574.934 743.218 569.583 738.934 563.997 734.991C557.338 730.291 549.762 725.735 543.755 720.237C542.364 718.964 540.979 717.745 540.635 715.845C541.733 713.732 543.472 712.124 545.292 710.624C552.654 704.555 561.389 699.428 569.285 694.037C578.647 687.647 588.24 680.026 598.347 674.935Z"/>
	<path fill="#FEFEFE" transform="scale(3.42819 3.42819)" d="M600.215 702.269C601.612 702.519 602.363 702.593 603.46 703.57C603.943 705.268 602.933 707.333 602.381 708.973C604.807 708.897 607.033 708.515 609.173 709.851C609.7 710.988 609.688 710.983 609.377 712.199C608.067 713.616 605.587 713.736 603.759 714.206L603.477 715.202C603.81 716.425 604.213 717.632 604.171 718.913C604.144 719.716 603.501 720.313 602.844 720.74C599.787 722.727 598.787 718.455 596.19 718.114C594.966 719.029 594.814 719.838 594.223 721.226C593.151 721.351 591.478 721.51 590.433 721.223C589.022 720.836 588.934 720.518 588.378 719.299C588.551 717.759 589.275 716.865 590.143 715.641L590.522 715.116L590.341 714.537C589.053 714.251 587.86 714.137 586.911 713.138C586.87 712.665 586.798 712.149 586.889 711.677C587.534 708.321 589.869 709.885 591.805 708.689C591.054 707.153 589.993 705.505 590.139 703.759C591.179 702.942 591.396 703.063 592.742 703.041C594.376 703.718 595.458 704.934 596.699 706.147C597.825 704.816 599.034 703.552 600.215 702.269Z"/>
	<path fill="#6DE164" transform="scale(3.42819 3.42819)" d="M534.566 628.511C535.789 628.46 537.022 628.409 538.246 628.467C539.548 628.529 540.55 629.184 541.606 629.896C549.119 634.958 556.255 641.173 563.523 646.64C569.714 651.296 581.262 658.567 585.961 663.758C586.711 664.586 587.004 664.727 586.952 665.883C580.426 672.713 570.538 677.912 562.718 683.306C554.235 689.158 539.471 700.741 530.479 704.708C529.149 704.904 527.693 705.048 526.361 704.821C524.995 704.589 523.735 703.977 522.576 703.239C518.144 700.414 480.634 672.66 479.371 670.376C478.955 669.625 478.496 668.139 478.812 667.307C480.35 663.255 528.142 631.455 534.566 628.511Z"/>
	<path fill="#FEFEFE" transform="scale(3.42819 3.42819)" d="M533.026 655.288C533.197 655.294 533.368 655.294 533.538 655.306C535.158 655.417 535.751 655.58 536.791 656.768C536.726 657.998 536.469 659.494 537.031 660.626C537.803 662.182 542.528 661.141 544.25 661.615C545.207 662.505 545.335 662.428 545.405 663.711C543.908 665.374 542.213 665.188 540.578 666.342C539.782 666.905 541.643 670.455 541.216 671.974C540.233 672.781 539.044 673.088 537.773 673.041C535.984 672.974 534.962 671.844 533.725 670.707C533.247 671.238 532.767 671.773 532.249 672.267C530.95 673.506 529.682 673.969 527.891 673.947C526.672 673.444 526.163 673.17 525.419 672.07C525.321 670.553 526.059 669.538 526.767 668.256L527.114 667.636L526.837 666.971C525.89 666.668 524.532 666.38 523.706 665.853C522.619 665.16 522.718 664.406 522.568 663.261C522.911 662.479 522.948 661.964 523.72 661.503C525.926 660.186 527.961 660.942 530.248 661.583C530.991 659.3 531.704 657.327 533.026 655.288Z"/>
	<path fill="#6DE164" transform="scale(3.42819 3.42819)" d="M608.84 578.465C610.789 578.623 612.189 579.109 613.761 580.266C623.175 587.191 632.339 594.542 641.722 601.532C646.973 605.444 653.745 609.412 658.35 613.975C659.164 614.782 659.433 615.559 659.622 616.66C658.705 618.211 657.018 619.344 655.585 620.407C646.65 627.036 636.945 632.937 627.725 639.184C620.501 644.078 608.503 654.071 600.746 656.736C599.85 656.592 599.647 656.58 598.767 656.355C597.197 655.954 595.814 655.029 594.493 654.123C587.872 649.582 581.743 644.295 575.244 639.577C567.945 634.278 560.206 629.344 553.192 623.681C551.731 622.501 550.508 621.307 549.56 619.672C550.425 617.845 551.773 616.765 553.317 615.524C560.939 609.397 569.797 604.062 577.898 598.535C587.795 591.784 598.054 583.673 608.84 578.465Z"/>
	<path fill="#FEFEFE" transform="scale(3.42819 3.42819)" d="M599.848 603.016C601.072 602.844 602.573 602.637 603.768 603.074C606.689 604.143 604.669 606.696 605.229 608.778L605.838 608.784L607.7 605.913C608.368 605.51 608.97 605.149 609.76 605.043C611.831 604.767 613.607 605.252 615.233 606.546C615.498 607.292 615.792 607.612 615.523 608.41C614.679 610.911 612.123 611.198 610.043 612.249C611.654 612.366 614.057 612.363 615.529 613.035C616.989 613.702 616.997 614.316 617.526 615.732C617.28 616.935 616.988 617.793 615.954 618.561C614.526 619.622 612.333 619.169 610.691 618.957L609.717 618.826C609.305 619.932 610.205 620.66 610.574 621.732C611.086 623.218 610.932 623.293 610.216 624.613C609.133 625.085 607.681 625.791 606.483 625.809C602.546 625.869 604.608 622.21 602.707 620.714C601.833 622.239 600.99 623.849 599.228 624.494C597.42 625.157 595.882 624.602 594.202 623.958C593.643 623.307 593.239 623.114 593.197 622.205C593.099 620.086 594.568 618.793 595.897 617.34L596.386 616.811C596.161 615.814 591.616 616.569 590.083 615.391C589.351 614.829 589.537 614.435 589.442 613.587C590.438 611.026 592.404 609.318 594.525 607.662C596.301 607.676 596.789 608.641 598.34 608.892C598.207 606.071 598.148 605.294 599.848 603.016Z"/>
	<path fill="#FEFEFE" transform="scale(3.42819 3.42819)" d="M467.01 351.072Q488.689 367.357 510.535 383.416C517.263 388.388 525.767 393.173 531.267 399.436C535.063 403.759 536.983 409.828 540.714 414.484C546.574 421.626 553.75 428.436 560.645 434.565L561.027 434.703C568.924 442.7 580.955 450.165 589.978 457.34C572.316 468.662 555.359 481.145 538.003 492.93Q490.385 524.836 443.113 557.254C428.782 567.104 414.288 576.67 399.841 586.346C391.161 592.159 382.604 598.334 373.651 603.718L324.866 568.231C317.416 562.775 309.63 557.538 302.405 551.801Q280.949 536.609 259.849 520.927C252.589 515.532 244.79 510.39 238.087 504.327C252.038 493 268.518 483.83 283.563 473.974L358.766 424.007L430.53 375.821C442.618 367.592 454.459 358.564 467.01 351.072Z"/>
	<path fill="#2EB338" transform="scale(3.42819 3.42819)" d="M399.745 409.223C420.853 423.564 441.554 438.815 462.193 453.841C473.537 462.1 484.772 470.677 496.556 478.298C505.033 472.966 558.55 438.369 560.645 434.565L561.027 434.703C568.924 442.7 580.955 450.165 589.978 457.34C572.316 468.662 555.359 481.145 538.003 492.93Q490.385 524.836 443.113 557.254C428.782 567.104 414.288 576.67 399.841 586.346C391.161 592.159 382.604 598.334 373.651 603.718L324.866 568.231C317.416 562.775 309.63 557.538 302.405 551.801C319.036 542.011 334.976 530.675 351.24 520.252C365.75 530.302 379.661 541.269 394.426 550.948C414.062 535.813 435.373 522.396 455.764 508.281C447.877 501.677 438.764 495.971 430.351 490.013L381.129 455.058C373.328 449.465 364.929 444.056 357.772 437.663Q378.926 423.691 399.745 409.223Z"/>
</svg>
